<svg xmlns="http://www.w3.org/2000/svg" xmlns:xlink="http://www.w3.org/1999/xlink" x="0px" y="0px"
	 width="100%" viewBox="0 0 510 208">
<path fill="#7397E7" opacity="1.000000" stroke="none" 
	d="
M280.701965,159.784363 
	C282.445343,160.823151 284.153259,161.862350 285.866211,161.870728 
	C308.197388,161.980072 330.529266,161.943359 352.860992,161.943405 
	C354.639221,161.943405 356.417419,161.943390 358.502319,161.943390 
	C358.502319,167.478226 358.502319,172.389313 358.502319,177.657806 
	C326.609589,177.657806 294.864166,177.657806 262.492676,177.657806 
	C262.412598,175.982162 262.256317,174.228851 262.255707,172.475479 
	C262.241821,132.978333 262.318726,93.480850 262.146088,53.984451 
	C262.125916,49.369099 263.416504,48.073555 268.036407,48.108101 
	C295.866180,48.316196 323.698303,48.207943 351.529633,48.220741 
	C353.161926,48.221493 354.794189,48.354477 356.766510,48.440811 
	C356.766510,53.927532 356.766510,59.134918 356.766510,64.915344 
	C331.465454,64.915344 306.390930,64.915344 280.697449,64.915344 
	C280.697449,77.246788 280.604767,89.018997 280.890015,100.782036 
	C280.910736,101.635750 283.670227,103.118195 285.168823,103.134109 
	C301.332520,103.305717 317.498688,103.241554 333.664185,103.241829 
	C338.330505,103.241905 343.000671,103.356224 347.661804,103.200577 
	C350.610687,103.102112 351.972900,104.070160 351.821716,107.191765 
	C351.645599,110.828323 351.780579,114.479942 351.780579,118.816040 
	C328.058624,118.816040 304.689117,118.816040 280.668793,118.816040 
	C280.668793,132.768402 280.668793,146.037018 280.701965,159.784363 
z"/>
<path fill="#7296E6" opacity="1.000000" stroke="none" 
	d="
M404.114319,161.141663 
	C400.723480,166.113632 397.608032,170.839310 394.306396,175.431091 
	C393.527405,176.514511 392.146729,177.831604 390.999908,177.873749 
	C384.583282,178.109528 378.153503,177.987198 370.687225,177.987198 
	C375.562622,170.945114 379.865936,164.696045 384.203491,158.470795 
	C394.196442,144.128998 404.129669,129.744400 414.271851,115.508789 
	C416.354004,112.586273 416.295898,110.492424 414.263123,107.589157 
	C402.140686,90.275558 390.194550,72.838448 378.200226,55.435242 
	C376.803131,53.408108 375.473328,51.334579 373.484039,48.335293 
	C381.299103,48.335293 388.185455,48.140285 395.042145,48.504040 
	C396.372559,48.574623 397.841919,50.652203 398.815948,52.095097 
	C407.849701,65.476776 416.784637,78.925140 425.762299,92.344719 
	C426.657074,93.682213 427.645172,94.957237 429.078278,96.935196 
	C433.779755,89.938766 438.127258,83.529602 442.411652,77.078529 
	C448.120331,68.482880 453.699402,59.799271 459.540894,51.295490 
	C460.501373,49.897282 462.477234,48.450466 464.060730,48.359062 
	C470.027527,48.014629 476.026123,48.220806 483.168701,48.220806 
	C481.286194,51.130703 479.886902,53.416435 478.369080,55.620518 
	C466.287140,73.165062 454.246460,90.738800 442.017273,108.180275 
	C440.156311,110.834419 440.290833,112.511192 442.103943,115.121819 
	C455.678680,134.667175 469.065796,154.342865 482.499359,173.986145 
	C483.220062,175.039948 483.830200,176.169342 484.934082,177.995010 
	C477.648682,177.995010 471.060974,178.209717 464.507324,177.832169 
	C463.015320,177.746231 461.259033,175.865295 460.271729,174.380188 
	C449.679504,158.448135 439.217377,142.429596 428.150085,125.567032 
	C420.007782,137.622253 412.164734,149.234344 404.114319,161.141663 
z"/>
<path fill="#7196E6" opacity="1.000000" stroke="none" 
	d="
M59.730942,97.634682 
	C65.600937,82.006752 71.252914,66.709702 77.200546,51.528473 
	C77.776367,50.058689 80.050751,48.900047 81.777878,48.337376 
	C83.435158,47.797459 85.406235,48.220711 87.239410,48.220722 
	C98.924248,48.220787 98.818062,48.259045 102.686852,58.997364 
	C116.333611,96.875687 130.061951,134.724625 143.747803,172.588882 
	C144.295471,174.104095 144.725571,175.661835 145.457184,177.982300 
	C139.000275,177.982300 133.219223,178.187027 127.476669,177.808334 
	C126.337784,177.733231 124.881493,175.583603 124.362312,174.111710 
	C120.875587,164.226944 117.452446,154.313492 114.338318,144.306778 
	C113.187035,140.607315 111.628311,138.952972 107.426567,139.048294 
	C94.267776,139.346786 81.092102,139.381088 67.935577,139.036469 
	C63.361923,138.916656 61.487106,140.725067 60.154175,144.712967 
	C56.990086,154.179398 53.270046,163.462463 50.208454,172.959488 
	C48.896290,177.029785 46.825710,178.447342 42.670673,178.083008 
	C38.584217,177.724701 34.441772,178.004883 29.447617,178.004883 
	C39.686031,150.833694 49.640617,124.415741 59.730942,97.634682 
M70.199142,116.754616 
	C69.423286,119.219200 68.647430,121.683784 67.801491,124.370987 
	C81.070229,124.370987 93.719116,124.370987 106.749603,124.370987 
	C100.442467,106.021698 94.305740,88.168152 87.703011,68.958900 
	C81.640877,85.556290 76.076553,100.790726 70.199142,116.754616 
z"/>
<path fill="#7095E6" opacity="1.000000" stroke="none" 
	d="
M160.900391,137.000000 
	C160.900314,107.350807 160.900314,78.201614 160.900314,48.640480 
	C166.949661,48.640480 172.655426,48.640480 178.963882,48.640480 
	C178.963882,86.341187 178.963882,123.895653 178.963882,161.953415 
	C184.336639,161.953415 189.127502,161.953339 193.918365,161.953430 
	C209.250732,161.953751 224.583664,162.024460 239.914978,161.897095 
	C243.108368,161.870560 244.470993,162.771835 244.264084,166.127243 
	C244.031830,169.893707 244.210709,173.685532 244.210709,177.723907 
	C216.316879,177.723907 189.047379,177.723907 160.900467,177.723907 
	C160.900467,164.315491 160.900467,150.907745 160.900391,137.000000 
z"/>
</svg>