<svg width="20" height="20" fill="none" xmlns="http://www.w3.org/2000/svg"><path d="M10.6173 15.3361l2.0385-2.0385c.3426-.3427.8816-.3903 1.2791-.1131l2.6854 1.8729c.5084.3546.5728 1.0825.1345 1.5208v0c-.7073.7073-1.723 1.0144-2.6708.6948-1.7617-.5941-4.72375-1.8786-7.19929-4.3541-2.47554-2.4755-3.75996-5.43761-4.3541-7.19929-.31965-.94778-.01252-1.96349.69475-2.67076v0c.43832-.43832 1.16628-.37395 1.52089.13448l1.87289 2.68536c.27721.39747.22955.9365-.11311 1.27916l-2.0385 2.0385" stroke="#FF4F22" stroke-width="1.5" stroke-linecap="round"/></svg>