<svg width="80" height="80" viewBox="0 0 80 80" fill="none" xmlns="http://www.w3.org/2000/svg">
<path d="M32.8749 71.75L52.4999 46.25H71.2499C72.9075 46.25 74.4972 45.5915 75.6693 44.4194C76.8414 43.2473 77.4999 41.6576 77.4999 40C77.4999 38.3424 76.8414 36.7527 75.6693 35.5806C74.4972 34.4085 72.9075 33.75 71.2499 33.75H52.4999L32.8749 8.25001C32.8749 8.25001 31.4999 6.25001 29.9999 6.25001H24.7499C24.4244 6.22997 24.0998 6.30127 23.8127 6.45588C23.5256 6.61049 23.2873 6.84224 23.1249 7.12501C22.8749 7.75001 23.4999 9.50001 23.7499 10.125L31.4999 33.75H17.4999L10.6249 24.625C10.4326 24.3415 10.1706 24.1121 9.86421 23.9589C9.55778 23.8057 9.21713 23.7338 8.87491 23.75H4.99991C4.49991 23.75 3.37491 23.875 3.99991 25.5C4.62491 27.125 9.99991 40 9.99991 40C9.99991 40 4.62491 52.75 3.99991 54.5C3.37491 56.25 4.49991 56.25 4.99991 56.25H8.87491C9.21713 56.2663 9.55778 56.1943 9.86421 56.0411C10.1706 55.8879 10.4326 55.6585 10.6249 55.375L17.4999 46.25H31.4999L23.7499 69.875C23.4999 70.5 22.8749 72.25 23.1249 72.875C23.2751 73.1685 23.5109 73.4093 23.8011 73.5656C24.0914 73.7219 24.4223 73.7862 24.7499 73.75H29.9999C31.4999 73.75 32.8749 71.75 32.8749 71.75Z" stroke="#66CC33" stroke-width="2" stroke-linecap="round" stroke-linejoin="round"/>
</svg>
