<svg width="80" height="80" viewBox="0 0 80 80" fill="none" xmlns="http://www.w3.org/2000/svg">
<path d="M23.9217 52.0001L19.3335 43.3334L25.9609 39.7648L33.0982 45.3726L23.9217 52.0001Z" stroke="#66CC33" stroke-width="2" stroke-linejoin="round"/>
<path d="M26.9804 49.4509L30.0392 56.5882M30.0392 56.5882H33.6078M30.0392 56.5882L28.5098 73.9215M28.5098 73.9215H2V57.098C4.74834 51.2638 7.14173 48.9173 12.7059 46.3921L25.9608 39.7647L26.4706 34.6666M28.5098 73.9215H40.7451" stroke="#66CC33" stroke-width="2" stroke-linejoin="round"/>
<path fill-rule="evenodd" clip-rule="evenodd" d="M43.8041 23.451V13.2549C43.8041 7.06065 38.7826 2.03922 32.5884 2.03922C26.3941 2.03922 21.3727 7.06065 21.3727 13.2549V23.451C21.3727 29.6452 26.3941 34.6667 32.5884 34.6667C38.7826 34.6667 43.8041 29.6452 43.8041 23.451ZM32.5884 0C25.2679 0 19.3335 5.93442 19.3335 13.2549V23.451C19.3335 30.7715 25.2679 36.7059 32.5884 36.7059C39.9089 36.7059 45.8433 30.7715 45.8433 23.451V13.2549C45.8433 5.93442 39.9089 0 32.5884 0Z" fill="#66CC33"/>
<path d="M20.5249 13.9591C29.8525 13.0229 33.1092 11.4966 36.6124 7.62158C39.4272 10.5513 41.1242 11.5779 44.4124 12.0091" stroke="#66CC33" stroke-width="2" stroke-linecap="round" stroke-linejoin="round"/>
<path d="M42.2746 52.0001L46.8628 43.3334L40.2353 39.7648L33.0981 45.3726L42.2746 52.0001Z" stroke="#66CC33" stroke-width="2" stroke-linejoin="round"/>
<path fill-rule="evenodd" clip-rule="evenodd" d="M39.2393 39.8552L38.7295 34.2474L40.7213 34.0663L41.1807 39.1194L53.9206 45.4893C56.749 46.7742 58.8527 48.0499 60.6048 49.7958C60.8247 50.0149 61.0382 50.2406 61.2462 50.4735C60.5285 50.6584 59.8316 50.8951 59.1597 51.1794C57.6466 49.6819 55.7839 48.5313 53.0768 47.3027C53.071 47.3001 53.0652 47.2974 53.0594 47.2946C53.0538 47.292 53.0484 47.2893 53.0429 47.2865L39.788 40.6591C39.4782 40.5042 39.2707 40.2001 39.2393 39.8552ZM52.2598 72.9215H38.6018L37.175 56.7509L40.1347 49.8449L38.2964 49.057L35.4974 55.5882H32.5881V57.5882H35.2411L36.69 74.0094C36.7356 74.5256 37.168 74.9215 37.6862 74.9215H53.7497C53.2 74.2987 52.7012 73.6298 52.2598 72.9215Z" fill="#66CC33"/>
<path fill-rule="evenodd" clip-rule="evenodd" d="M65 78C72.1797 78 78 72.1797 78 65C78 57.8203 72.1797 52 65 52C57.8203 52 52 57.8203 52 65C52 72.1797 57.8203 78 65 78ZM65 80C73.2843 80 80 73.2843 80 65C80 56.7157 73.2843 50 65 50C56.7157 50 50 56.7157 50 65C50 73.2843 56.7157 80 65 80Z" fill="#66CC33"/>
<path d="M71 60.5L62.75 68.75L59 65" stroke="#66CC33" stroke-width="2" stroke-linecap="round" stroke-linejoin="round"/>
</svg>
