<svg width="80" height="80" viewBox="0 0 80 80" fill="none" xmlns="http://www.w3.org/2000/svg">
<path d="M38.366 34.647H51.1111C54.452 34.5912 55.2863 33.6347 55.1895 30.5686" stroke="#66CCFF" stroke-width="2" stroke-linecap="round" stroke-linejoin="round"/>
<path d="M30.7191 57.0786L26.1309 48.4119L32.7583 44.8433L39.8956 50.4511L30.7191 57.0786Z" stroke="#66CCFF" stroke-width="2" stroke-linejoin="round"/>
<path d="M33.7778 54.5294L36.8366 61.6667M36.8366 61.6667H40.4052M36.8366 61.6667L35.3072 79M35.3072 79H8.79736V62.1765C11.5457 56.3423 13.9391 53.9958 19.5032 51.4706L32.7581 44.8432L33.268 39.7451M35.3072 79H47.5425" stroke="#66CCFF" stroke-width="2" stroke-linejoin="round"/>
<path fill-rule="evenodd" clip-rule="evenodd" d="M56.7189 18.8431C56.7189 19.0195 56.7164 19.1953 56.7115 19.3704C58.5551 20.5474 59.7777 22.6113 59.7777 24.9608C59.7777 28.621 56.8105 31.5882 53.1503 31.5882C52.8616 31.5882 52.5773 31.5698 52.2983 31.534C52.4502 30.8789 52.5534 30.2052 52.6041 29.5169C52.7832 29.5381 52.9655 29.549 53.1503 29.549C55.6843 29.549 57.7385 27.4948 57.7385 24.9608C57.7385 22.4268 55.6843 20.3726 53.1503 20.3726C52.9779 20.3726 52.8078 20.3821 52.6403 20.4006V18.3527C52.8086 18.3399 52.9787 18.3333 53.1503 18.3333C53.6755 18.3333 54.1864 18.3944 54.6764 18.5099C54.5044 9.88189 47.6706 3.03922 39.3856 3.03922C31.1006 3.03922 24.2667 9.88189 24.0948 18.5099C24.5847 18.3944 25.0957 18.3333 25.6209 18.3333C25.7923 18.3333 25.9623 18.3398 26.1305 18.3526V20.4005C25.9632 20.382 25.7931 20.3726 25.6209 20.3726C23.0868 20.3726 21.0326 22.4268 21.0326 24.9608C21.0326 27.4948 23.0868 29.549 25.6209 29.549C25.8056 29.549 25.9878 29.5381 26.1668 29.5169C26.2175 30.2052 26.3207 30.8789 26.4725 31.534C26.1937 31.5698 25.9094 31.5882 25.6209 31.5882C21.9606 31.5882 18.9934 28.621 18.9934 24.9608C18.9934 22.6113 20.216 20.5474 22.0597 19.3704C22.0547 19.1953 22.0522 19.0195 22.0522 18.8431C22.0522 8.98864 29.8126 1 39.3856 1C48.9585 1 56.7189 8.98864 56.7189 18.8431Z" fill="#66CCFF"/>
<path fill-rule="evenodd" clip-rule="evenodd" d="M50.6014 28.5294V18.3333C50.6014 12.139 45.58 7.11758 39.3858 7.11758C33.1915 7.11758 28.1701 12.139 28.1701 18.3333V28.5294C28.1701 34.7236 33.1915 39.745 39.3858 39.745C45.58 39.745 50.6014 34.7236 50.6014 28.5294ZM39.3858 5.07837C32.0653 5.07837 26.1309 11.0128 26.1309 18.3333V28.5294C26.1309 35.8498 32.0653 41.7843 39.3858 41.7843C46.7062 41.7843 52.6407 35.8498 52.6407 28.5294V18.3333C52.6407 11.0128 46.7062 5.07837 39.3858 5.07837Z" fill="#66CCFF"/>
<path d="M27.3223 19.0375C36.6499 18.1012 39.9065 16.575 43.4098 12.7C46.2245 15.6297 47.9216 16.6562 51.2098 17.0875" stroke="#66CCFF" stroke-width="2" stroke-linecap="round" stroke-linejoin="round"/>
<path d="M49.0719 57.0786L53.6602 48.4119L47.0327 44.8433L39.8955 50.4511L49.0719 57.0786Z" stroke="#66CCFF" stroke-width="2" stroke-linejoin="round"/>
<path d="M46.013 54.5295L42.9542 61.6667M42.9542 61.6667H39.3856M42.9542 61.6667L44.4836 79.0001H70.9934V62.1765C68.2451 56.3423 65.8517 53.9958 60.2875 51.4706L47.0326 44.8432L46.5228 39.2354" stroke="#66CCFF" stroke-width="2" stroke-linejoin="round"/>
</svg>
