<svg width="80" height="80" viewBox="0 0 80 80" fill="none" xmlns="http://www.w3.org/2000/svg">
<path d="M42.375 57.5H65L75 77.5H5L15 57.5H37.5" stroke="#FF4F22" stroke-width="2" stroke-miterlimit="10" stroke-linecap="round" stroke-linejoin="round"/>
<path d="M39.9999 69.125C39.9999 50.125 58.1249 41.125 59.8749 25C59.9701 24.1702 60.0118 23.3352 59.9999 22.5C59.9999 17.1957 57.8928 12.1086 54.1421 8.35786C50.3913 4.60714 45.3043 2.5 39.9999 2.5C34.6956 2.5 29.6085 4.60714 25.8578 8.35786C22.1071 12.1086 19.9999 17.1957 19.9999 22.5C19.9884 23.3351 20.0301 24.1702 20.1249 25C21.8749 41.125 39.9999 50.125 39.9999 69.125Z" stroke="#FF4F22" stroke-width="2" stroke-miterlimit="10" stroke-linecap="round" stroke-linejoin="round"/>
<path d="M40 27.5C42.7614 27.5 45 25.2614 45 22.5C45 19.7386 42.7614 17.5 40 17.5C37.2386 17.5 35 19.7386 35 22.5C35 25.2614 37.2386 27.5 40 27.5Z" stroke="#FF4F22" stroke-width="2" stroke-miterlimit="10" stroke-linecap="round" stroke-linejoin="round"/>
</svg>
