<svg width="81" height="80" fill="none" xmlns="http://www.w3.org/2000/svg"><g clip-path="url(#clip0)" fill="#FF4F22" stroke="#fff" stroke-width="2"><path d="M80.5 2.337A2.347 2.347 0 0078.154 0h-13.26c-.621 0-1.217.247-1.657.687L34.209 29.715c-9.18-2.972-19.303-.587-26.17 6.28-10.053 10.053-10.053 26.411 0 36.465 10.054 10.053 26.413 10.054 36.467 0 6.866-6.867 9.25-16.988 6.279-26.17l2.006-2.006 7.592-1.518a2.344 2.344 0 001.838-1.839l1.352-6.755 6.755-1.351a2.344 2.344 0 001.84-1.841l1.281-6.445h4.707a2.344 2.344 0 002.344-2.344V2.337zm-4.689 17.51h-4.286c-1.118 0-2.08.79-2.299 1.886l-1.352 6.797-6.753 1.351a2.344 2.344 0 00-1.84 1.84l-1.35 6.754-6.756 1.352c-.453.09-.87.313-1.197.64l-3.557 3.557a2.344 2.344 0 00-.525 2.511c3.058 7.819 1.21 16.693-4.706 22.61-8.224 8.225-21.608 8.227-29.835 0-8.226-8.226-8.226-21.61 0-29.835 5.926-5.926 14.803-7.76 22.61-4.706.867.34 1.853.133 2.511-.525l29.39-29.39h6.63L43.349 33.836a2.344 2.344 0 103.315 3.315L75.81 8.003v11.844z"/><path d="M24.615 55.885a7.04 7.04 0 00-9.945 0 7.04 7.04 0 000 9.945 7.04 7.04 0 009.945 0 7.04 7.04 0 000-9.945zm-3.315 6.63a2.343 2.343 0 01-3.315 0 2.343 2.343 0 010-3.315 2.347 2.347 0 013.315 0 2.347 2.347 0 010 3.315z"/></g><defs><clipPath id="clip0"><path fill="#fff" transform="translate(.5)" d="M0 0h80v80H0z"/></clipPath></defs></svg>