<svg width="81" height="80" fill="none" xmlns="http://www.w3.org/2000/svg"><path d="M78.74 41.491L55.254 24.27a16.122 16.122 0 001.496-6.77c0-8.96-7.29-16.25-16.25-16.25S24.25 8.54 24.25 17.5c0 2.418.545 4.705 1.497 6.769L2.26 41.49A1.251 1.251 0 003 43.75h3.75v27.5H5.5c-.691 0-1.25.56-1.25 1.25v5c0 .69.559 1.25 1.25 1.25h70c.692 0 1.25-.56 1.25-1.25v-5c0-.69-.558-1.25-1.25-1.25h-1.25v-27.5H78a1.25 1.25 0 00.74-2.259zM40.5 3.75c7.581 0 13.75 6.169 13.75 13.75S48.081 31.25 40.5 31.25 26.75 25.081 26.75 17.5 32.92 3.75 40.5 3.75zM26.966 26.475c2.914 4.38 7.89 7.275 13.534 7.275 5.644 0 10.62-2.895 13.534-7.274L74.182 41.25H6.819l20.148-14.775zM74.25 76.25H6.75v-2.5h67.5v2.5zm-27.5-5h-12.5v-17.5h12.5v17.5zm25 0h-22.5V52.5c0-.69-.559-1.25-1.25-1.25H33c-.691 0-1.25.56-1.25 1.25v18.75H9.25v-27.5h62.5v27.5z" fill="#FF4F22"/><path d="M41.486 26.28l.219-.027c3.007-.387 4.29-2.318 4.507-4.02.307-2.399-1.273-4.737-3.9-5.659h0l-.66-.234-.166-.059v-4.977l.326.102c.57.18.994.48 1.217.795a1.2 1.2 0 001.663.29h0c.54-.376.669-1.112.292-1.646h0c-.625-.884-1.771-1.641-3.288-1.892l-.21-.035v-.486c0-.651-.532-1.182-1.193-1.182-.66 0-1.193.531-1.193 1.182v.582l-.196.044a9.75 9.75 0 00-.618.162h0c-1.682.503-2.965 2.133-3.102 3.967l6.302 13.094zm0 0v.22m0-.22v.22m0 0v.068c0 .651-.532 1.182-1.193 1.182-.66 0-1.193-.531-1.193-1.182v-.382l-.202-.04c-1.445-.285-2.902-.946-3.885-2.157a1.174 1.174 0 01.181-1.66 1.201 1.201 0 011.68.18h0c.466.574 1.166.95 1.904 1.175l.322.098V17.92m2.386 8.58L39.1 17.92m0 0l-.16-.062m.16.062l-.16-.062m0 0a20.605 20.605 0 01-1.162-.481c-1.771-.83-2.728-2.395-2.594-4.19l3.757 4.671zm4.905 4.077c.132-1.032-.482-2.34-2.008-3.008l-.35-.153v5.132l.302-.066c1.147-.249 1.928-.906 2.056-1.905zm-6.282-8.574h0c-.02.277.012.615.188.95.177.339.488.654.989.901l.36.178v-3.989l-.358.171c-.641.307-1.122 1.032-1.178 1.789z" fill="#FF4F22" stroke="#fff" stroke-width=".5"/></svg>