<svg width="80" height="80" fill="none" xmlns="http://www.w3.org/2000/svg"><g clip-path="url(#clip0)" fill="#6C3" stroke="#fff" stroke-width=".5"><path d="M41.43 26.601l.218-.028c3.266-.424 4.662-2.538 4.899-4.405.334-2.632-1.386-5.193-4.237-6.201h0l-.714-.255-.165-.06v-5.384l.325.103c.616.196 1.07.52 1.308.86a1.313 1.313 0 001.828.32h0a1.313 1.313 0 00.32-1.828h0c-.68-.97-1.926-1.799-3.573-2.074l-.209-.034v-.512a1.313 1.313 0 00-2.624 0v.618l-.196.044c-.22.05-.444.108-.67.176h0c-1.83.552-3.225 2.339-3.375 4.35l6.866 14.31zm0 0v.22m0-.22v.22m0 0v.074a1.312 1.312 0 01-2.625 0v-.398m2.626.324l-2.626-.324m0-9.023v6.35l-.323-.1c-.796-.243-1.55-.653-2.051-1.275h0a1.313 1.313 0 00-1.846-.2l4.22-4.775zm0 0l-.158-.062m.159.062l-.16-.062m0 0a22.226 22.226 0 01-1.26-.525m1.26.525l-1.26-.525m1.42 9.61l-.202-.04m.201.04l-.2-.04m0 0c-1.568-.312-3.151-1.035-4.219-2.362a1.313 1.313 0 01.2-1.845l4.018 4.207zm-1.218-9.57c-1.925-.908-2.968-2.625-2.822-4.596l2.822 4.596zm4.347 7.009c1.237-.27 2.072-.983 2.209-2.06.142-1.113-.515-2.53-2.162-3.257l-.35-.155v5.538l.303-.066zm-4.55-11.41h0a1.89 1.89 0 00.2 1.024c.188.364.52.705 1.06.973l.361.179V10.38l-.358.172c-.688.332-1.203 1.116-1.264 1.933z"/><path d="M50.665 52.027l-.435.428h8.463c.725 0 1.313.588 1.313 1.313v6.768c0 .724-.588 1.312-1.313 1.312h-1.951v13.999a3.908 3.908 0 01-3.903 3.903H27.162a3.908 3.908 0 01-3.904-3.903V61.848h-1.951a1.313 1.313 0 01-1.313-1.312v-6.768c0-.725.588-1.313 1.313-1.313H30.4l-.436-.428a10.597 10.597 0 01-3.18-7.576v-5.8c0-.725.587-1.313 1.312-1.313h2.902c2.963 0 5.646 1.218 7.576 3.181l.428.436v-7.236l-.232-.017c-8.659-.632-15.512-7.882-15.512-16.704C23.258 7.763 30.768.25 40 .25c9.231 0 16.742 7.513 16.742 16.748 0 8.61-6.528 15.723-14.892 16.647l-.223.024v7.287l.429-.436a10.597 10.597 0 017.576-3.181h2.902c.725 0 1.312.588 1.312 1.313v5.8a10.6 10.6 0 01-3.18 7.576zm.556-11.814v-.25h-1.589c-4.414 0-8.005 3.59-8.005 8.005v4.487h1.59c4.414 0 8.004-3.59 8.004-8.005v-4.237zm-21.563-.25h-.25v4.487c0 4.414 3.59 8.005 8.005 8.005h1.59v-4.487c0-4.414-3.591-8.005-8.005-8.005h-1.34zm-3.525 21.885h-.25v13.999a1.28 1.28 0 001.279 1.278h25.676a1.28 1.28 0 001.279-1.278v-14H26.133zm30.998-2.625h.25V55.08H22.619v4.143h34.512zM40 2.875c-7.785 0-14.117 6.336-14.117 14.123 0 7.788 6.332 14.124 14.117 14.124 7.784 0 14.117-6.336 14.117-14.124 0-7.787-6.333-14.123-14.117-14.123z"/></g><defs><clipPath id="clip0"><path fill="#fff" d="M0 0h80v80H0z"/></clipPath></defs></svg>